<svg width="20" height="21" viewBox="0 0 20 21" fill="none" xmlns="http://www.w3.org/2000/svg">
<path d="M12.72 7.28999L8.43 11.59L6.78 9.93999C6.69036 9.83529 6.58004 9.75029 6.45597 9.69029C6.33191 9.63029 6.19678 9.59649 6.05906 9.59119C5.92134 9.58589 5.78401 9.60909 5.65568 9.65939C5.52736 9.70959 5.41081 9.78589 5.31335 9.88329C5.2159 9.98079 5.13964 10.0974 5.08937 10.2257C5.03909 10.354 5.01589 10.4913 5.02121 10.6291C5.02653 10.7668 5.06026 10.9019 5.12028 11.026C5.1803 11.15 5.26532 11.2604 5.37 11.35L7.72 13.71C7.81344 13.8027 7.92426 13.876 8.0461 13.9258C8.1679 13.9755 8.2984 14.0008 8.43 14C8.6923 13.9989 8.9437 13.8947 9.13 13.71L14.13 8.70999C14.2237 8.61699 14.2981 8.50639 14.3489 8.38457C14.3997 8.26271 14.4258 8.132 14.4258 7.99999C14.4258 7.86798 14.3997 7.73727 14.3489 7.61541C14.2981 7.49355 14.2237 7.38295 14.13 7.28999C13.9426 7.10374 13.6892 6.9992 13.425 6.9992C13.1608 6.9992 12.9074 7.10374 12.72 7.28999ZM10 0.499989C8.0222 0.499989 6.08879 1.08648 4.4443 2.18529C2.79981 3.28411 1.51809 4.84589 0.761211 6.67316C0.00433075 8.50039 -0.193699 10.5111 0.192151 12.4509C0.578001 14.3907 1.53041 16.1725 2.92894 17.5711C4.32746 18.9696 6.10929 19.922 8.0491 20.3079C9.9889 20.6937 11.9996 20.4957 13.8268 19.7388C15.6541 18.9819 17.2159 17.7002 18.3147 16.0557C19.4135 14.4112 20 12.4778 20 10.5C20 9.18679 19.7413 7.88641 19.2388 6.67316C18.7363 5.4599 17.9997 4.35751 17.0711 3.42892C16.1425 2.50034 15.0401 1.76374 13.8268 1.26119C12.6136 0.758649 11.3132 0.499989 10 0.499989ZM10 18.5C8.4178 18.5 6.87104 18.0308 5.55544 17.1518C4.23985 16.2727 3.21447 15.0233 2.60897 13.5615C2.00347 12.0997 1.84504 10.4911 2.15372 8.93929C2.4624 7.38742 3.22433 5.96196 4.34315 4.84314C5.46197 3.72432 6.88743 2.96239 8.4393 2.65371C9.9911 2.34503 11.5997 2.50345 13.0615 3.10895C14.5233 3.71446 15.7727 4.73983 16.6518 6.05543C17.5308 7.37102 18 8.91769 18 10.5C18 12.6217 17.1572 14.6566 15.6569 16.1569C14.1566 17.6571 12.1217 18.5 10 18.5Z" fill="#1A1B1F"/>
</svg>
