<svg width="20" height="21" viewBox="0 0 20 21" fill="none" xmlns="http://www.w3.org/2000/svg">
<path d="M12.72 7.28998L8.43 11.59L6.78 9.93998C6.69036 9.83528 6.58004 9.75028 6.45597 9.69028C6.33191 9.63028 6.19678 9.59648 6.05906 9.59118C5.92134 9.58588 5.78401 9.60908 5.65568 9.65938C5.52736 9.70958 5.41081 9.78588 5.31335 9.88328C5.2159 9.98078 5.13964 10.0974 5.08937 10.2257C5.03909 10.354 5.01589 10.4913 5.02121 10.6291C5.02653 10.7668 5.06026 10.9019 5.12028 11.026C5.1803 11.15 5.26532 11.2604 5.37 11.35L7.72 13.71C7.81344 13.8027 7.92426 13.876 8.0461 13.9258C8.1679 13.9755 8.2984 14.0008 8.43 14C8.6923 13.9989 8.9437 13.8947 9.13 13.71L14.13 8.70998C14.2237 8.61698 14.2981 8.50638 14.3489 8.38456C14.3997 8.2627 14.4258 8.13199 14.4258 7.99998C14.4258 7.86797 14.3997 7.73727 14.3489 7.61541C14.2981 7.49355 14.2237 7.38294 14.13 7.28998C13.9426 7.10373 13.6892 6.9992 13.425 6.9992C13.1608 6.9992 12.9074 7.10373 12.72 7.28998ZM10 0.499985C8.0222 0.499985 6.08879 1.08647 4.4443 2.18528C2.79981 3.2841 1.51809 4.84588 0.761211 6.67315C0.00433075 8.50038 -0.193699 10.5111 0.192151 12.4509C0.578001 14.3907 1.53041 16.1725 2.92894 17.5711C4.32746 18.9696 6.10929 19.922 8.0491 20.3079C9.9889 20.6937 11.9996 20.4957 13.8268 19.7388C15.6541 18.9819 17.2159 17.7002 18.3147 16.0557C19.4135 14.4112 20 12.4778 20 10.5C20 9.18678 19.7413 7.8864 19.2388 6.67315C18.7363 5.45989 17.9997 4.3575 17.0711 3.42891C16.1425 2.50033 15.0401 1.76373 13.8268 1.26118C12.6136 0.758645 11.3132 0.499985 10 0.499985ZM10 18.5C8.4178 18.5 6.87104 18.0308 5.55544 17.1518C4.23985 16.2727 3.21447 15.0233 2.60897 13.5615C2.00347 12.0997 1.84504 10.4911 2.15372 8.93928C2.4624 7.38741 3.22433 5.96195 4.34315 4.84313C5.46197 3.72431 6.88743 2.96238 8.4393 2.6537C9.9911 2.34502 11.5997 2.50344 13.0615 3.10894C14.5233 3.71445 15.7727 4.73982 16.6518 6.05542C17.5308 7.37101 18 8.91768 18 10.5C18 12.6217 17.1572 14.6566 15.6569 16.1569C14.1566 17.6571 12.1217 18.5 10 18.5Z" fill="#1A1B1F"/>
</svg>
